# xmcd CD database file
#
# Track frame offsets:
#	150
#	17685
#	35025
#	61305
#	69818
#	92495
#	119335
#	121845
#	136400
#	154340
#
# Disc length: 2300 seconds
#
# Revision: 1
# Processed by: cddbd v1.5.2PL0 Copyright (c) Steve Scherf et al.
# Submitted via: CDex 1.70beta3
#
DISCID=7f08fa0a
DTITLE=浜田麻里 - LUNATIC DOLL～暗殺警告～
DYEAR=1983
DGENRE=J-Metal
TTITLE0=NOAH
TTITLE1=TOKIO MAKIN' LOVE
TTITLE2=RUNAWAY FROM YESTERDAY
TTITLE3=LOVE MAKER
TTITLE4=BLACK HOLE
TTITLE5=ALL NIGHT PARTY
TTITLE6=MISTRESS
TTITLE7=SPACER
TTITLE8=LIGHTS
TTITLE9=BOTTOM ENERGY
EXTD=YEAR: 1983
EXTT0=
EXTT1=
EXTT2=
EXTT3=
EXTT4=
EXTT5=
EXTT6=
EXTT7=
EXTT8=
EXTT9=
PLAYORDER=
